# xmcd
#
# Track frame offsets:
#	182
#	19282
#	36007
#	50482
#	68257
#	84907
#	99007
#	108907
#	127432
#	148057
#	165532
#	185407
#	200857
#	213982
#	229207
#	241282
#	254482
#	271507
#	286732
#	307282
#	318382
#	337132
#
# Disc length: 4692 seconds
#
# Revision: 1
# Processed by: cddbd v1.4PL0 Copyright (c) Steve Scherf et al.
# Submitted via: audiograbber 1.82.02
#
DISCID=42125216
DTITLE=Various Artist - Lending A Hand 99 Muster Disk2
DYEAR=1900
DGENRE=
TTITLE0=John Williamson - Raining On The Rock
TTITLE1=Tania Kernaghan - Leave Like A Man
TTITLE2=Colin Buchanan - Edge Of The Kimberley
TTITLE3=Brendon Walmsley - End Of My Ride
TTITLE4=Greg Champion - See You Again Sometime
TTITLE5=John McSweeney - Lillie's White Lies
TTITLE6=Kathryn Pitt - Jillaroo
TTITLE7=Kedron Taylor - A Long Way Home
TTITLE8=Andrew Clermont - T-Scube Special
TTITLE9=Pat Drummond - Robbie's Got A Gun
TTITLE10=The Crosby Sisters - Angel From Montgomery
TTITLE11=Ian Betteridge - Heaven Can Be Better Than This?
TTITLE12=Tanya Self - Real Good Thing
TTITLE13=Graeme Jensen - This Land My Home
TTITLE14=Moonee Valley Drifters - Make Up Your Mind
TTITLE15=Ron Odgers - Sittin',Sippin', Fishin'
TTITLE16=Marcus Holden - Eine Kleine Nutmusik
TTITLE17=Michael O'Rourke - Billion Stars
TTITLE18=Pixie Jenkins - No-Mans Land
TTITLE19=Anne Kirkpatrick - Can You Believe In Me
TTITLE20=Bushwackers - This Is The Place For Me
TTITLE21=Troy Cassar-Daley - The Original Australian Working Man
EXTD=
EXTT0=
EXTT1=
EXTT2=
EXTT3=
EXTT4=
EXTT5=
EXTT6=
EXTT7=
EXTT8=
EXTT9=
EXTT10=
EXTT11=
EXTT12=
EXTT13=
EXTT14=
EXTT15=
EXTT16=
EXTT17=
EXTT18=
EXTT19=
EXTT20=
EXTT21=
PLAYORDER=
